<?xml version="1.0" standalone="no"?><!DOCTYPE svg PUBLIC "-//W3C//DTD SVG 1.1//EN" "http://www.w3.org/Graphics/SVG/1.1/DTD/svg11.dtd"><svg t="1702968422625" class="icon" viewBox="0 0 1024 1024" version="1.1" xmlns="http://www.w3.org/2000/svg" p-id="5224" xmlns:xlink="http://www.w3.org/1999/xlink" width="48" height="48"><path d="M852.550624 381.119029s-113.793833-134.168348-151.21936-174.628378c-11.560008-12.499259-20.085515-21.169266-37.786778-21.675016s-302.438722 0-302.438722 0c-9.681507 0-22.253016 2.312002-38.292528 21.169266-37.497777 44.072532-121.307839 136.33585-149.846609 170.365625-19.363014 22.469766-39.954279 50.575037 0 90.457066 46.384534 54.18754 173.400127 203.094899 301.571721 351.207507 18.207013 21.097015 29.694772 21.675016 37.786777 21.675016s19.218514 0 37.786778-21.675016c127.087843-146.739857 247.889932-289.000212 301.210471-351.207507 31.862273-32.079023 22.903267-59.823044 1.22825-85.688563z m-280.835955-16.689762h-21.675016V538.262894h21.675016v24.203768h-71.455303V538.262894h21.675016V364.429267h-21.675016v-11.198758l-76.874056 209.525153h-31.862273L311.397728 340.153249h31.934523l59.823044 173.833627a99.488323 99.488323 0 0 1 4.479504 19.941015h0.65025a86.700064 86.700064 0 0 1 5.057504-20.230015l60.979044-173.400127h97.393072z m137.2751 95.80357a80.992309 80.992309 0 0 1-57.800042 19.146264h-28.900021v83.087561h-28.900021V340.153249h63.146546q36.125026 0 55.849291 17.340013a62.496296 62.496296 0 0 1 19.941014 49.708036 67.264799 67.264799 0 0 1-23.264517 53.031539z" p-id="5225" fill="#ffffff"></path><path d="M651.334227 365.440768H622.072956v88.650815h26.515769a59.028293 59.028293 0 0 0 39.954279-11.849009 42.555281 42.555281 0 0 0 13.58301-33.885275q0-42.916531-50.791787-42.916531z" p-id="5226" fill="#ffffff"></path></svg>